<?xml version="1.0" encoding="UTF-8"?>
<svg version="1.1" xmlns="http://www.w3.org/2000/svg" width="512" height="512">
<path d="M0 0 C1.22394761 -0.10591849 1.22394761 -0.10591849 2.47262144 -0.21397674 C5.2023583 -0.44298016 7.9332444 -0.64373756 10.66542053 -0.84138489 C11.62549519 -0.91561704 12.58556984 -0.98984918 13.57473767 -1.06633079 C205.64545223 -15.91706802 205.64545223 -15.91706802 255.86097717 26.14225769 C259.99935011 29.75669321 263.88166087 33.60298372 267.69300842 37.55778503 C268.39837738 38.2840454 268.39837738 38.2840454 269.11799622 39.02497768 C307.45413654 78.82982159 308.79317428 131.91176158 307.84347916 184.43368912 C307.17845857 214.08160802 304.88622913 243.63862942 301.75550842 273.12028503 C303.20836243 273.09200623 303.20836243 273.09200623 304.69056702 273.06315613 C305.95723206 273.04849304 307.22389709 273.03382996 308.52894592 273.01872253 C310.41492493 272.99044373 310.41492493 272.99044373 312.33900452 272.96159363 C317.94731702 273.22209121 320.23686177 275.46348402 323.87159729 279.42887878 C327.14070774 284.49416012 326.30981814 290.7596764 326.27308655 296.55778503 C326.27851142 297.92823529 326.28563613 299.29867972 326.29432678 300.66911316 C326.31252009 304.37993239 326.30550944 308.09030544 326.29281044 311.8011322 C326.28266191 315.69008052 326.29208125 319.57899142 326.2983551 323.46794128 C326.30562614 329.99795875 326.29605818 336.52779508 326.2769928 343.05778503 C326.25522496 350.60033688 326.26227673 358.14245619 326.28429842 365.68499756 C326.30246802 372.1684234 326.30500316 378.65171927 326.29454374 385.13516235 C326.28831733 389.00413602 326.28744954 392.87290657 326.3006897 396.74186707 C326.31227046 400.37984905 326.30418268 404.01727503 326.28111267 407.65519714 C326.27332689 409.62206769 326.28516251 411.58898542 326.29762268 413.55583191 C326.21724382 421.94738506 325.32410878 425.55168468 319.38050842 431.49528503 C313.67429835 434.05324127 307.91442466 433.42401241 301.75550842 433.12028503 C301.77645569 433.75530945 301.79740295 434.39033386 301.81898499 435.04460144 C301.90255423 437.9446658 301.95429616 440.84447619 302.00550842 443.74528503 C302.03902405 444.74430847 302.07253967 445.74333191 302.10707092 446.77262878 C302.18599688 452.73153867 302.00101874 456.55144116 297.75550842 461.12028503 C292.18903059 466.06774279 286.89983163 465.68440757 279.68519592 465.6282196 C277.84625763 465.63757955 277.84625763 465.63757955 275.97016907 465.64712858 C272.57452328 465.66031316 269.17976379 465.65558209 265.78417206 465.64318371 C262.11947598 465.63413021 258.45485711 465.64810441 254.79017639 465.65910339 C247.61400776 465.67689006 240.43800647 465.67304802 233.26183128 465.66145283 C227.42963157 465.65241935 221.59747875 465.65119414 215.76527405 465.6555481 C214.93521095 465.65616103 214.10514786 465.65677396 213.24993134 465.65740547 C211.56367491 465.65868437 209.8774185 465.65998122 208.19116211 465.66129583 C192.37905336 465.67270206 176.56703738 465.65958727 160.75494385 465.63809437 C147.18737725 465.62022333 133.61994755 465.62332743 120.05238342 465.64176941 C104.29686733 465.66317538 88.54143253 465.67160342 72.78590393 465.65932035 C71.10585023 465.65804616 69.42579652 465.65678867 67.7457428 465.6555481 C66.91912392 465.65493099 66.09250504 465.65431389 65.2408371 465.65367809 C59.41562956 465.65022437 53.5904736 465.65605401 47.76527405 465.66546631 C40.66628368 465.67668464 33.56747023 465.67364982 26.46850014 465.65234333 C22.84643949 465.64183056 19.22467382 465.63771466 15.60261536 465.65093994 C11.67685039 465.66505736 7.75156847 465.64820112 3.82582092 465.6282196 C2.10724884 465.64160393 2.10724884 465.64160393 0.35395813 465.65525866 C-5.83381186 465.59397818 -9.55271995 465.29030827 -14.24449158 461.12028503 C-19.1948934 455.79286586 -18.72486562 450.61220369 -18.49449158 443.74528503 C-18.4764447 442.72305847 -18.45839783 441.70083191 -18.43980408 440.64762878 C-18.39288648 438.13753755 -18.32725887 435.62940739 -18.24449158 433.12028503 C-19.1855072 433.16669128 -20.12652283 433.21309753 -21.09605408 433.26091003 C-31.27276383 433.55588713 -31.27276383 433.55588713 -35.86949158 431.49528503 C-41.81309193 425.55168468 -42.70622697 421.94738506 -42.78660583 413.55583191 C-42.77850891 412.27772644 -42.77041199 410.99962097 -42.7620697 409.68278503 C-42.76749457 408.31233477 -42.77461929 406.94189035 -42.78330994 405.57145691 C-42.80150325 401.86063768 -42.7944926 398.15026463 -42.78179359 394.43943787 C-42.77164507 390.55048955 -42.7810644 386.66157865 -42.78733826 382.77262878 C-42.7946093 376.24261131 -42.78504133 369.71277498 -42.76597595 363.18278503 C-42.74420812 355.64023319 -42.75125988 348.09811388 -42.77328157 340.55557251 C-42.79145117 334.07214666 -42.79398632 327.5888508 -42.7835269 321.10540771 C-42.77730048 317.23643405 -42.77643269 313.3676635 -42.78967285 309.498703 C-42.80125362 305.86072102 -42.79316584 302.22329504 -42.77009583 298.58537292 C-42.76231005 296.61850238 -42.77414567 294.65158465 -42.78660583 292.68473816 C-42.70622697 284.29318501 -41.81309193 280.68888539 -35.86949158 274.74528503 C-31.8348221 272.9366401 -29.40017371 272.95301414 -25.01792908 273.01872253 C-23.11793152 273.04071716 -23.11793152 273.04071716 -21.17955017 273.06315613 C-20.21098083 273.08200867 -19.2424115 273.10086121 -18.24449158 273.12028503 C-18.24601046 272.56817931 -18.24752934 272.01607358 -18.24909425 271.44723737 C-18.33859357 238.72982041 -18.40723121 206.01243412 -18.44875289 173.2949222 C-18.45375576 169.3670807 -18.45893305 165.43923944 -18.46421814 161.51139832 C-18.46526738 160.72943111 -18.46631662 159.9474639 -18.46739766 159.14180072 C-18.48480607 146.47789023 -18.51634615 133.81405233 -18.55310276 121.15018491 C-18.59050006 108.15727789 -18.61272486 95.1644089 -18.62084556 82.17145026 C-18.62633586 74.15313685 -18.64368054 66.13502859 -18.67615744 58.11677833 C-18.69978755 51.96984952 -18.70231447 45.82307734 -18.6969223 39.67610931 C-18.69802461 37.15335196 -18.70600589 34.63058698 -18.72131348 32.10787582 C-18.74116759 28.66774455 -18.73644659 25.22849636 -18.72550964 21.78834534 C-18.73716101 20.78639393 -18.74881238 19.78444253 -18.76081681 18.75212896 C-18.71170057 13.05002257 -18.23834909 9.52002802 -14.24449158 5.12028503 C-9.74318735 1.32632119 -5.72782686 0.40375692 0 0 Z " fill="#D5D5D3" transform="translate(114.24449157714844,22.879714965820313)"/>
<path d="M0 0 C1.43633913 -0.00461032 2.87267355 -0.01096412 4.30899811 -0.01890898 C8.25173461 -0.03560766 12.19408385 -0.02735365 16.13682175 -0.0149641 C20.39047622 -0.00591809 24.64406386 -0.0198811 28.89770508 -0.03088379 C37.22891271 -0.0486784 45.55997627 -0.04482484 53.89118958 -0.03323323 C60.66160261 -0.02420288 67.43197525 -0.02297317 74.20239258 -0.02732849 C75.16567301 -0.02794142 76.12895345 -0.02855436 77.1214242 -0.02918586 C79.07825662 -0.03046475 81.03508903 -0.0317616 82.99192142 -0.03307623 C101.3449111 -0.04448479 119.69782089 -0.03136399 138.05079746 -0.00987476 C153.80148311 0.00799647 169.55205085 0.00489244 185.30273438 -0.0135498 C203.58965751 -0.03495164 221.87651061 -0.04338612 240.16344452 -0.03110075 C242.11311339 -0.02982654 244.06278228 -0.02856906 246.01245117 -0.02732849 C247.45139543 -0.02640284 247.45139543 -0.02640284 248.91940928 -0.02545848 C255.68237392 -0.02200352 262.44529418 -0.02783708 269.20825195 -0.0372467 C277.44908465 -0.04846043 285.68976493 -0.04543984 293.93058014 -0.02412373 C298.13590383 -0.01360485 302.34097331 -0.00950565 306.54629517 -0.02272034 C310.39542754 -0.03463289 314.2440699 -0.02810089 318.09315777 -0.00681013 C319.48607238 -0.00233919 320.87902832 -0.00462145 322.27191639 -0.01431328 C335.1563139 -0.09709212 335.1563139 -0.09709212 340.10742188 4.50793457 C345.5215282 10.07805157 344.67125287 16.64438487 344.625 23.94543457 C344.63042487 25.31588483 344.63754958 26.68632925 344.64624023 28.0567627 C344.66443355 31.76758193 344.6574229 35.47795498 344.64472389 39.18878174 C344.63457537 43.07773006 344.6439947 46.96664095 344.65026855 50.85559082 C344.65753959 57.38560829 344.64797163 63.91544462 344.62890625 70.44543457 C344.60713841 77.98798642 344.61419018 85.53010573 344.63621187 93.07264709 C344.65438147 99.55607294 344.65691662 106.0393688 344.6464572 112.52281189 C344.64023078 116.39178555 344.63936299 120.2605561 344.65260315 124.1295166 C344.66418392 127.76749859 344.65609613 131.40492457 344.63302612 135.04284668 C344.62524035 137.00971722 344.63707597 138.97663496 344.64953613 140.94348145 C344.56915727 149.33503459 343.67602223 152.93933421 337.73242188 158.88293457 C332.02621181 161.44089081 326.26633811 160.81166195 320.10742188 160.50793457 C320.13884277 161.46047119 320.13884277 161.46047119 320.17089844 162.43225098 C320.25446768 165.33231533 320.30620961 168.23212573 320.35742188 171.13293457 C320.3909375 172.13195801 320.42445313 173.13098145 320.45898438 174.16027832 C320.53791033 180.1191882 320.35293219 183.93909069 316.10742188 188.50793457 C310.54094404 193.45539233 305.25174509 193.07205711 298.03710938 193.01586914 C296.81115051 193.0221091 295.58519165 193.02834907 294.32208252 193.03477812 C290.92643674 193.0479627 287.53167724 193.04323162 284.13608551 193.03083324 C280.47138943 193.02177974 276.80677057 193.03575394 273.14208984 193.04675293 C265.96592121 193.0645396 258.78991993 193.06069756 251.61374474 193.04910237 C245.78154502 193.04006888 239.9493922 193.03884367 234.1171875 193.04319763 C233.2871244 193.04381056 232.45706131 193.0444235 231.60184479 193.045055 C229.91558837 193.0463339 228.22933196 193.04763076 226.54307556 193.04894537 C210.73096682 193.06035159 194.91895083 193.0472368 179.1068573 193.0257439 C165.5392907 193.00787287 151.971861 193.01097697 138.40429688 193.02941895 C122.64878078 193.05082491 106.89334599 193.05925295 91.13781738 193.04696989 C89.45776368 193.04569569 87.77770997 193.04443821 86.09765625 193.04319763 C85.27103737 193.04258053 84.44441849 193.04196343 83.59275055 193.04132763 C77.76754301 193.0378739 71.94238705 193.04370355 66.1171875 193.05311584 C59.01819713 193.06433418 51.91938369 193.06129936 44.82041359 193.03999287 C41.19835295 193.0294801 37.57658727 193.0253642 33.95452881 193.03858948 C30.02876384 193.0527069 26.10348193 193.03585066 22.17773438 193.01586914 C21.03201965 193.02479203 19.88630493 193.03371491 18.70587158 193.04290819 C12.5181016 192.98162772 8.7991935 192.67795781 4.10742188 188.50793457 C-0.84297995 183.18051539 -0.37295217 177.99985323 -0.14257812 171.13293457 C-0.12453125 170.11070801 -0.10648438 169.08848145 -0.08789062 168.03527832 C-0.04097303 165.52518709 0.02465458 163.01705693 0.10742188 160.50793457 C-0.83359375 160.55434082 -1.77460937 160.60074707 -2.74414062 160.64855957 C-12.92085038 160.94353666 -12.92085038 160.94353666 -17.51757812 158.88293457 C-23.46117848 152.93933421 -24.35431352 149.33503459 -24.43469238 140.94348145 C-24.42659546 139.66537598 -24.41849854 138.38727051 -24.41015625 137.07043457 C-24.41558112 135.69998431 -24.42270583 134.32953989 -24.43139648 132.95910645 C-24.4495898 129.24828721 -24.44257915 125.53791416 -24.42988014 121.8270874 C-24.41973162 117.93813908 -24.42915095 114.04922819 -24.4354248 110.16027832 C-24.44269584 103.63026085 -24.43312788 97.10042452 -24.4140625 90.57043457 C-24.39229466 83.02788272 -24.39934643 75.48576341 -24.42136812 67.94322205 C-24.43953772 61.4597962 -24.44207287 54.97650034 -24.43161345 48.49305725 C-24.42538703 44.62408359 -24.42451924 40.75531304 -24.4377594 36.88635254 C-24.44934017 33.24837055 -24.44125238 29.61094457 -24.41818237 25.97302246 C-24.4103966 24.00615192 -24.42223222 22.03923418 -24.43469238 20.0723877 C-24.3293298 9.07253386 -24.3293298 9.07253386 -19.89257812 4.50793457 C-14.10025612 -0.87950548 -7.53138414 -0.05240399 0 0 Z " fill="#FEA912" transform="translate(95.892578125,295.4920654296875)"/>
<path d="M0 0 C105.6 0 211.2 0 320 0 C320 22 320 22 316 28 C310.58117555 33.0880168 304.9568655 32.5626626 297.9296875 32.50793457 C296.09074921 32.51729451 296.09074921 32.51729451 294.21466064 32.52684355 C290.81901486 32.54002813 287.42425537 32.53529705 284.02866364 32.52289867 C280.36396755 32.51384517 276.69934869 32.52781937 273.03466797 32.53881836 C265.85849934 32.55660503 258.68249805 32.55276299 251.50632286 32.5411678 C245.67412315 32.53213431 239.84197033 32.5309091 234.00976562 32.53526306 C233.17970253 32.53587599 232.34963943 32.53648893 231.49442291 32.53712043 C229.80816649 32.53839933 228.12191008 32.53969619 226.43565369 32.5410108 C210.62354494 32.55241702 194.81152896 32.53930223 178.99943542 32.51780933 C165.43186883 32.4999383 151.86443913 32.50304239 138.296875 32.52148438 C122.54135891 32.54289034 106.78592411 32.55131838 91.03039551 32.53903532 C89.35034181 32.53776112 87.6702881 32.53650364 85.99023438 32.53526306 C85.16361549 32.53464596 84.33699661 32.53402886 83.48532867 32.53339306 C77.66012114 32.52993933 71.83496517 32.53576898 66.00976562 32.54518127 C58.91077526 32.55639961 51.81196181 32.55336479 44.71299171 32.5320583 C41.09093107 32.52154553 37.4691654 32.51742963 33.84710693 32.53065491 C29.92134197 32.54477233 25.99606005 32.52791609 22.0703125 32.50793457 C20.35174042 32.5213189 20.35174042 32.5213189 18.59844971 32.53497362 C12.59883363 32.47555653 8.57883474 32.29930666 4 28 C0 22 0 22 0 0 Z " fill="#D6D6D4" transform="translate(96,456)"/>
<path d="M0 0 C7.87529995 6.7502571 7.87529995 6.7502571 11.2205658 10.09358215 C11.97904816 10.84924469 12.73753052 11.60490723 13.51899719 12.38346863 C14.72957039 13.59707817 14.72957039 13.59707817 15.96459961 14.83520508 C16.83368958 15.70254272 17.70277954 16.56988037 18.59820557 17.46350098 C20.96116998 19.82283935 23.32188962 22.18437823 25.68144679 24.54712129 C28.15563986 27.02385938 30.63228678 29.49814184 33.10853577 31.9728241 C37.25848187 36.12095678 41.4063276 40.27118091 45.55297852 44.42260742 C50.35171122 49.22680271 55.15406481 54.02735595 59.95827287 58.82607538 C64.08760696 62.95088034 68.21500039 67.07761957 72.34075934 71.20600051 C74.80331125 73.67011354 77.26653901 76.13354076 79.7315197 78.59522438 C82.47092627 81.3312215 85.2062576 84.07126982 87.94116211 86.81176758 C88.76238052 87.63096176 89.58359894 88.45015594 90.42970276 89.29417419 C91.16844635 90.03573761 91.90718994 90.77730103 92.6683197 91.54133606 C93.63915701 92.51273891 93.63915701 92.51273891 94.6296072 93.50376606 C96 95 96 95 96 96 C64.32 96 32.64 96 0 96 C0 64.32 0 32.64 0 0 Z " fill="#44546C" transform="translate(320,24)"/>
<path d="M0 0 C5.03241956 3.43677434 6.33424058 7.60842582 7.875 13.3125 C8.30670699 14.84688627 8.74037448 16.380722 9.17578125 17.9140625 C9.40088379 18.70973633 9.62598633 19.50541016 9.85791016 20.32519531 C11.01417425 24.30441048 12.29238019 28.24346515 13.5625 32.1875 C15.75133241 39.02084349 17.73048576 45.88505753 19.58666992 52.81542969 C21.50822533 59.84802957 23.8581897 66.72556303 26.32788086 73.58349609 C28.02463337 78.4508811 29.09532681 82.5161569 28.5625 87.75 C26.36508911 90.65372153 24.02027006 92.59740998 20.5625 93.75 C17.81759849 94.12430475 15.2714622 94.37433113 12.5625 93.75 C8.85130316 90.89210754 7.82498659 88.24994038 6.8125 83.75 C6.57015625 82.71875 6.3278125 81.6875 6.078125 80.625 C5.5625 77.75 5.5625 77.75 5.5625 73.75 C-3.3475 73.75 -12.2575 73.75 -21.4375 73.75 C-22.4275 78.7 -22.4275 78.7 -23.4375 83.75 C-23.87314795 85.44925508 -24.33848963 87.14234624 -24.875 88.8125 C-25.10058594 89.54597656 -25.32617188 90.27945313 -25.55859375 91.03515625 C-26.4375 92.75 -26.4375 92.75 -29.4375 93.75 C-34.92822941 94.39596817 -38.242983 93.18836982 -42.93359375 90.625 C-44.88461617 88.19255646 -44.92580637 86.23062465 -44.78198242 83.17236328 C-44.07255715 78.1837612 -42.43673843 73.46358008 -40.875 68.6875 C-40.13364305 66.35301428 -39.3927664 64.01837597 -38.65234375 61.68359375 C-38.09135986 59.93344971 -38.09135986 59.93344971 -37.51904297 58.14794922 C-35.94304903 53.19655336 -34.43983183 48.22412543 -32.9375 43.25 C-32.36867652 41.38796372 -31.79966346 39.52598534 -31.23046875 37.6640625 C-29.91671445 33.35342094 -28.63530838 29.03406713 -27.36328125 24.7109375 C-26.6589371 22.3489336 -25.95451159 19.98695396 -25.25 17.625 C-24.92902344 16.51576172 -24.60804688 15.40652344 -24.27734375 14.26367188 C-20.91097627 3.058676 -20.91097627 3.058676 -15.4921875 -0.54296875 C-10.38099921 -2.30176168 -5.00000994 -1.81818543 0 0 Z " fill="#D6D5D1" transform="translate(246.4375,333.25)"/>
<path d="M0 0 C0.93587779 -0.00638882 1.87175557 -0.01277764 2.83599329 -0.01936007 C5.97390081 -0.03462807 9.11054941 -0.01413625 12.24841309 0.00622559 C14.49717121 0.00272495 16.74592687 -0.00293298 18.99467468 -0.0105896 C25.10418762 -0.02485526 31.21325146 -0.00775818 37.32272148 0.01569557 C43.71189088 0.03577889 50.10104117 0.02992632 56.49023438 0.02758789 C67.22042909 0.02764149 77.95040738 0.04728997 88.68054199 0.07946777 C99.71932389 0.11255884 110.75792243 0.12672602 121.79675293 0.1204834 C135.10096816 0.11299667 148.40506614 0.12036879 161.70927429 0.14213562 C166.79051337 0.15031714 171.87171203 0.15301778 176.95295715 0.15144348 C182.93494573 0.15056549 188.91671474 0.16475806 194.8986454 0.19067001 C197.09606677 0.1978412 199.29351149 0.19991088 201.490942 0.19655228 C204.48663238 0.19284651 207.48167875 0.207554 210.47729492 0.22705078 C211.35034728 0.22172286 212.22339963 0.21639493 213.12290812 0.21090555 C217.80575476 0.26361804 220.94440925 0.56040605 224.73864746 3.62145996 C226.14322483 6.4306147 225.98759903 8.5095653 225.73864746 11.62145996 C223.95880341 14.75737566 223.21556539 15.46248732 219.73864746 16.62145996 C216.7218862 16.72223554 213.72809241 16.76487401 210.71107483 16.76190186 C209.30876308 16.76635854 209.30876308 16.76635854 207.87812179 16.77090526 C204.73209339 16.77960661 201.58610297 16.78110171 198.44006348 16.78259277 C196.18998127 16.78721985 193.93989984 16.79224436 191.68981934 16.79763794 C185.56802311 16.81077268 179.44623786 16.81720874 173.32442975 16.8216486 C169.50298174 16.82457697 165.68153675 16.82868128 161.86009026 16.83315277 C151.28200309 16.84526174 140.70391855 16.85564431 130.12582493 16.85902786 C129.44885356 16.85924743 128.7718822 16.85946699 128.07439655 16.85969321 C127.05650112 16.86002063 127.05650112 16.86002063 126.01804215 16.86035466 C124.64292816 16.86079813 123.26781418 16.86124469 121.8927002 16.86169434 C120.86954264 16.86202648 120.86954264 16.86202648 119.82571524 16.86236534 C108.7675843 16.86631528 97.70951918 16.8837759 86.65141369 16.90705386 C75.30144984 16.93075366 63.95153017 16.94297093 52.60153717 16.94439578 C46.2275656 16.94544599 39.85368689 16.95139983 33.47973824 16.96921539 C27.48715208 16.98563918 21.49472917 16.98787934 15.5021286 16.97907639 C13.29943595 16.97830301 11.09673473 16.98268802 8.89406395 16.99253464 C5.89358022 17.00516407 2.89368261 16.9994265 -0.10679626 16.98895264 C-0.9841257 16.99700904 -1.86145513 17.00506545 -2.76537031 17.01336598 C-8.64468519 16.96516593 -8.64468519 16.96516593 -11.78444004 15.21519089 C-13.50791924 13.35539073 -13.97844178 12.24703926 -14.32385254 9.74645996 C-14.4385791 9.08903809 -14.55330566 8.43161621 -14.67150879 7.75427246 C-13.18531313 0.02605504 -6.33255668 -0.09079637 0 0 Z " fill="#44546C" transform="translate(150.2613525390625,239.3785400390625)"/>
<path d="M0 0 C0.93587779 -0.00638882 1.87175557 -0.01277764 2.83599329 -0.01936007 C5.97390081 -0.03462807 9.11054941 -0.01413625 12.24841309 0.00622559 C14.49717121 0.00272495 16.74592687 -0.00293298 18.99467468 -0.0105896 C25.10418762 -0.02485526 31.21325146 -0.00775818 37.32272148 0.01569557 C43.71189088 0.03577889 50.10104117 0.02992632 56.49023438 0.02758789 C67.22042909 0.02764149 77.95040738 0.04728997 88.68054199 0.07946777 C99.71932389 0.11255884 110.75792243 0.12672602 121.79675293 0.1204834 C135.10096816 0.11299667 148.40506614 0.12036879 161.70927429 0.14213562 C166.79051337 0.15031714 171.87171203 0.15301778 176.95295715 0.15144348 C182.93494573 0.15056549 188.91671474 0.16475806 194.8986454 0.19067001 C197.09606677 0.1978412 199.29351149 0.19991088 201.490942 0.19655228 C204.48663238 0.19284651 207.48167875 0.207554 210.47729492 0.22705078 C211.35034728 0.22172286 212.22339963 0.21639493 213.12290812 0.21090555 C217.80575476 0.26361804 220.94440925 0.56040605 224.73864746 3.62145996 C226.14322483 6.4306147 225.98759903 8.5095653 225.73864746 11.62145996 C223.95880341 14.75737566 223.21556539 15.46248732 219.73864746 16.62145996 C216.7218862 16.72223554 213.72809241 16.76487401 210.71107483 16.76190186 C209.30876308 16.76635854 209.30876308 16.76635854 207.87812179 16.77090526 C204.73209339 16.77960661 201.58610297 16.78110171 198.44006348 16.78259277 C196.18998127 16.78721985 193.93989984 16.79224436 191.68981934 16.79763794 C185.56802311 16.81077268 179.44623786 16.81720874 173.32442975 16.8216486 C169.50298174 16.82457697 165.68153675 16.82868128 161.86009026 16.83315277 C151.28200309 16.84526174 140.70391855 16.85564431 130.12582493 16.85902786 C129.44885356 16.85924743 128.7718822 16.85946699 128.07439655 16.85969321 C127.05650112 16.86002063 127.05650112 16.86002063 126.01804215 16.86035466 C124.64292816 16.86079813 123.26781418 16.86124469 121.8927002 16.86169434 C120.86954264 16.86202648 120.86954264 16.86202648 119.82571524 16.86236534 C108.7675843 16.86631528 97.70951918 16.8837759 86.65141369 16.90705386 C75.30144984 16.93075366 63.95153017 16.94297093 52.60153717 16.94439578 C46.2275656 16.94544599 39.85368689 16.95139983 33.47973824 16.96921539 C27.48715208 16.98563918 21.49472917 16.98787934 15.5021286 16.97907639 C13.29943595 16.97830301 11.09673473 16.98268802 8.89406395 16.99253464 C5.89358022 17.00516407 2.89368261 16.9994265 -0.10679626 16.98895264 C-0.9841257 16.99700904 -1.86145513 17.00506545 -2.76537031 17.01336598 C-8.64468519 16.96516593 -8.64468519 16.96516593 -11.78444004 15.21519089 C-13.50791924 13.35539073 -13.97844178 12.24703926 -14.32385254 9.74645996 C-14.4385791 9.08903809 -14.55330566 8.43161621 -14.67150879 7.75427246 C-13.18531313 0.02605504 -6.33255668 -0.09079637 0 0 Z " fill="#44546C" transform="translate(150.2613525390625,191.3785400390625)"/>
<path d="M0 0 C0.83660156 0.00386719 1.67320312 0.00773437 2.53515625 0.01171875 C5.10558633 0.33354496 6.75284266 0.93553335 8.9375 2.3125 C10.52317196 5.48384391 10.0937182 8.9033404 10.09863281 12.38647461 C10.10359772 13.22075485 10.10856262 14.0550351 10.11367798 14.91459656 C10.12831338 17.68135393 10.13510334 20.44805399 10.140625 23.21484375 C10.14637464 25.13293968 10.15213239 27.05103559 10.15789795 28.96913147 C10.16841139 32.99333973 10.17425204 37.01752798 10.17773438 41.04174805 C10.18322455 46.20484968 10.20726228 51.36768832 10.23570633 56.53070736 C10.2543039 60.49317708 10.25953673 64.45558304 10.26107025 68.41809273 C10.26410305 70.32194013 10.2721526 72.22578626 10.28525543 74.12959099 C10.30225841 76.78964303 10.30045009 79.44904694 10.29394531 82.10913086 C10.3031601 82.89936646 10.31237488 83.68960205 10.3218689 84.50378418 C10.28109665 89.81047951 10.28109665 89.81047951 8.60272217 92.26271057 C5.66848482 94.1125126 2.9525043 94.51508518 -0.4375 94.625 C-1.56285156 94.68107422 -1.56285156 94.68107422 -2.7109375 94.73828125 C-6.17278629 94.1114681 -7.62988674 92.85129913 -10.0625 90.3125 C-10.56627803 87.32618956 -10.7475217 84.90618693 -10.70947266 81.91967773 C-10.71823425 81.07535187 -10.72699585 80.231026 -10.73602295 79.3611145 C-10.75801727 76.57225044 -10.74346591 73.7849737 -10.7265625 70.99609375 C-10.72993032 69.05843298 -10.73478265 67.12077426 -10.74105835 65.18312073 C-10.74842945 61.12358473 -10.73771533 57.06459898 -10.71435547 53.00512695 C-10.68584855 47.79691315 -10.70228231 42.58998644 -10.73221779 37.38181973 C-10.75026813 33.38151819 -10.74454348 29.38152289 -10.73157883 25.38121223 C-10.72823953 23.46063142 -10.73235023 21.54002294 -10.74397659 19.61947441 C-10.75665035 16.93754064 -10.73735942 14.25770482 -10.70947266 11.57592773 C-10.71959381 10.77948349 -10.72971497 9.98303925 -10.74014282 9.16246033 C-10.69741821 6.94920349 -10.69741821 6.94920349 -10.0625 3.3125 C-6.77709502 0.56256809 -4.23519773 -0.08509671 0 0 Z " fill="#D6D5D2" transform="translate(294.0625,332.6875)"/>
<path d="M0 0 C2.21424693 2.21424693 2.47180431 3.17696362 3.18359375 6.1484375 C3.48970581 7.40188965 3.48970581 7.40188965 3.80200195 8.68066406 C4.01171631 9.56979492 4.22143066 10.45892578 4.4375 11.375 C4.65559326 12.27444336 4.87368652 13.17388672 5.09838867 14.10058594 C5.53469344 15.9000806 5.96840973 17.70020502 6.39941406 19.50097656 C7.18178347 22.75639657 7.99497022 26.00323886 8.8125 29.25 C9.204375 30.8175 9.59625 32.385 10 34 C4.06 34 -1.88 34 -8 34 C-6.42894245 22.37417415 -3.19728208 11.26718595 0 0 Z " fill="#FDAA18" transform="translate(238,358)"/>
</svg>
