<?xml version="1.0" encoding="UTF-8"?>
<svg version="1.1" xmlns="http://www.w3.org/2000/svg" width="512" height="512">
<path d="M0 0 C0.8957373 0.47904785 0.8957373 0.47904785 1.80957031 0.96777344 C18.01161859 9.66478573 33.28722036 20.67862985 46 34 C46.78375 34.78375 47.5675 35.5675 48.375 36.375 C49.24125 37.24125 50.1075 38.1075 51 39 C51.64582031 39.61101562 52.29164063 40.22203125 52.95703125 40.8515625 C68.96660281 56.27234071 80.71601627 75.94101725 90 96 C90.51949219 97.08796875 91.03898437 98.1759375 91.57421875 99.296875 C99.61370663 116.93732611 104.24069299 135.8689262 107 155 C107.1757959 156.21099365 107.3515918 157.4219873 107.53271484 158.66967773 C108.12095956 163.46890056 108.18021018 168.23979318 108.203125 173.0703125 C108.20882507 174.02783417 108.21452515 174.98535583 108.22039795 175.97189331 C108.22980776 177.99736442 108.23636586 180.02285057 108.24023438 182.04833984 C108.24981805 185.0676765 108.28082861 188.08629496 108.3125 191.10546875 C108.55650176 235.80924323 95.53912624 283.53157998 69 320 C68.54947266 320.63115723 68.09894531 321.26231445 67.63476562 321.91259766 C60.99454402 331.19250682 53.91777246 339.78250114 46 348 C45.30648438 348.74507813 44.61296875 349.49015625 43.8984375 350.2578125 C43.29257812 350.89460938 42.68671875 351.53140625 42.0625 352.1875 C41.55847656 352.71730469 41.05445313 353.24710937 40.53515625 353.79296875 C35.89855184 357.43854321 28.53591111 356.4075972 23 356 C19.2834446 354.7611482 17.66009357 353.79666465 15.1875 350.8125 C13.20558303 346.11848612 12.67835284 341.97008885 13.5 336.9375 C15.19507462 333.61797888 17.13944678 331.75344155 19.82421875 329.21875 C24.1550834 324.8023566 27.82148469 319.79386193 31.56494141 314.87939453 C32.4962509 313.6597245 33.43312031 312.44427238 34.37646484 311.23388672 C67.10121837 269.23338264 81.90964705 216.33631908 75.875 163.5 C70.02858878 117.14837835 48.81677592 74.40164963 11.96337891 45.04174805 C-7.2631445 30.14282917 -28.55838474 19.42343342 -52 13 C-52.72767578 12.79890625 -53.45535156 12.5978125 -54.20507812 12.390625 C-97.90854011 0.66240673 -144.67508677 8.37047122 -184 30 C-189.21814962 33.03616616 -194.14111485 36.42316798 -199 40 C-199.57234375 40.4129834 -200.1446875 40.8259668 -200.734375 41.25146484 C-238.27844665 68.53222186 -262.14833297 110.35384516 -269.60546875 155.86328125 C-270.46289797 162.68026798 -271.03159267 169.46079025 -271.17578125 176.33203125 C-271.19962891 177.39744141 -271.22347656 178.46285156 -271.24804688 179.56054688 C-271.29139864 181.74784051 -271.32243725 183.93540933 -271.34179688 186.12304688 C-271.61624645 196.60957385 -276.03503115 201.2563286 -283.0625 208.5 C-292.13347915 218.03227122 -300.12906984 228.04151894 -307.5 238.9375 C-307.90968018 239.54021729 -308.31936035 240.14293457 -308.74145508 240.76391602 C-312.23595113 246.0543677 -315.59649085 251.43860063 -315 258 C-308.91629402 260.98170336 -302.89472333 262.1396381 -296.25 263.3125 C-282.41749594 265.85472758 -268.71021832 268.87137419 -255 272 C-253.9529536 277.29663541 -253.72436166 282.50362413 -253.53515625 287.88232422 C-253.49760223 288.86211746 -253.46004822 289.84191071 -253.4213562 290.85139465 C-253.2982128 294.08570323 -253.18041797 297.32018457 -253.0625 300.5546875 C-252.97703499 302.81708227 -252.89117263 305.07946207 -252.80493164 307.34182739 C-252.57849553 313.3031853 -252.35631878 319.26469357 -252.13537598 325.22625732 C-251.78271972 334.73128149 -251.42498874 344.23611219 -251.06466675 353.74084854 C-250.94042383 357.0395584 -250.81882328 360.33835781 -250.69750977 363.63717651 C-250.51567376 368.54914028 -250.3150606 373.46005596 -250.10467529 378.3708725 C-250.00479571 380.87954616 -249.93007297 383.38787073 -249.85986328 385.89752197 C-249.80455711 387.34593913 -249.74846475 388.79432659 -249.69140625 390.24267578 C-249.63448608 392.07730881 -249.63448608 392.07730881 -249.57641602 393.94900513 C-249.19260401 397.03158835 -249.19260401 397.03158835 -247.45541382 399.3921814 C-244.04288467 401.62672444 -240.96709237 401.54175592 -237.02197266 401.48242188 C-235.8212336 401.48829063 -235.8212336 401.48829063 -234.59623718 401.49427795 C-232.86056937 401.50024944 -231.12485147 401.49708921 -229.38920975 401.4858551 C-226.6396893 401.46859702 -223.8912207 401.47609894 -221.14169312 401.4901123 C-214.31256569 401.51976869 -207.48363876 401.50658051 -200.65447998 401.49493408 C-194.88435047 401.48672486 -189.11468019 401.49469518 -183.34461594 401.52406311 C-180.64006609 401.53114912 -177.93632786 401.51448829 -175.23184204 401.49694824 C-173.56682908 401.50265765 -171.90181944 401.50947569 -170.23681641 401.51757812 C-169.48856094 401.50626358 -168.74030548 401.49494904 -167.96937561 401.48329163 C-162.83351565 401.54288521 -159.96364238 402.78256903 -156 406 C-152.29863677 410.18838471 -151.40593794 413.39485244 -151.6796875 418.82421875 C-152.35783854 423.43068373 -154.12650195 426.19201431 -157.5 429.3125 C-161.93871696 432.30863395 -165.98643325 432.15931694 -171.15234375 432.17700195 C-171.98367325 432.18357315 -172.81500275 432.19014435 -173.67152405 432.19691467 C-176.42685032 432.21664554 -179.18212192 432.22831345 -181.9375 432.23828125 C-183.35252808 432.24439454 -183.35252808 432.24439454 -184.79614258 432.25063133 C-189.79491965 432.27149704 -194.79366927 432.28579328 -199.79248047 432.29516602 C-204.93578948 432.30619599 -210.07866173 432.34055489 -215.22181702 432.38033772 C-219.19232947 432.40659695 -223.16273967 432.41486637 -227.1333313 432.41844749 C-229.02779063 432.42329406 -230.92224598 432.43485245 -232.81661987 432.45348549 C-247.62770201 432.59004254 -259.14701606 431.31271229 -270.5625 420.875 C-281.39960822 409.63030143 -281.33428666 394.66127577 -281.8515625 379.98828125 C-281.91538889 378.3312918 -281.97980309 376.67432491 -282.04476929 375.01737976 C-282.17906356 371.54878196 -282.30794791 368.0800408 -282.43261719 364.61108398 C-282.59002999 360.23615629 -282.75825947 355.8617324 -282.93014908 351.48735237 C-283.64120146 333.32047775 -284.24088568 315.18443597 -284 297 C-284.74330566 296.86722656 -285.48661133 296.73445313 -286.25244141 296.59765625 C-287.23390137 296.42105469 -288.21536133 296.24445313 -289.2265625 296.0625 C-290.19674316 295.88847656 -291.16692383 295.71445312 -292.16650391 295.53515625 C-294.58690412 295.07802052 -296.97873251 294.56799973 -299.375 294 C-303.04450425 293.14662692 -306.70371049 292.6228386 -310.4375 292.125 C-322.11992672 290.35699596 -333.27545417 285.38473343 -340.71875 275.89453125 C-346.28537724 267.66339036 -347.79139023 258.92006339 -346.6640625 249.0625 C-341.9893552 226.72104175 -325.08205601 207.68394628 -310.140625 191.38671875 C-309.43421875 190.59910156 -308.7278125 189.81148437 -308 189 C-306.66195312 187.78183594 -306.66195312 187.78183594 -305.296875 186.5390625 C-301.42161904 181.82605424 -302.16159828 175.48989999 -302 169.6875 C-301.32462557 155.73852156 -299.28294926 142.56000781 -296 129 C-295.81598633 128.22301758 -295.63197266 127.44603516 -295.44238281 126.64550781 C-286.13142384 88.42066515 -261.74594311 49.65165796 -231 25 C-230.01 24.18402344 -229.02 23.36804688 -228 22.52734375 C-164.17740787 -29.40745473 -72.76301365 -39.6853621 0 0 Z " fill="#0097FE" transform="translate(375,52)"/>
<path d="M0 0 C3.94484232 2.89169437 5.40622543 6.66425001 6.94042969 11.18774414 C7.3528038 12.39158249 7.76517792 13.59542084 8.19004822 14.83573914 C8.63461973 16.15738338 9.07907953 17.4790652 9.5234375 18.80078125 C9.99330954 20.18043074 10.46386962 21.55984607 10.93507385 22.93904114 C11.93622668 25.87356804 12.9329717 28.80953925 13.92617798 31.74676514 C15.48155713 36.34618258 17.04666601 40.94224694 18.61401367 45.53759766 C19.13817681 47.07464311 19.66233148 48.61169144 20.18647766 50.14874268 C20.57464377 51.2869685 20.57464377 51.2869685 20.97065163 52.44818878 C21.75416395 54.74684978 22.53672074 57.04583404 23.3190155 59.34490967 C27.20502443 70.76225905 31.14285105 82.16070843 35.12997437 93.54318237 C36.03039713 96.11586635 36.92744481 98.68970316 37.82348633 101.26391602 C40.21543903 108.13001512 42.61703575 114.99118107 45.0973053 121.82595825 C46.07241736 124.51780095 47.03533493 127.21391805 47.99667358 129.91070557 C48.63066334 131.67279644 49.28321396 133.42817671 49.93676758 135.18310547 C52.28068461 141.77363078 54.01726164 148.2415044 52.7265625 155.265625 C50.41232133 158.55245189 47.51841138 160.00167537 43.7265625 161.265625 C38.56620211 161.75978824 34.13383045 161.89107742 29.3515625 159.765625 C22.63371855 153.36767838 19.69837396 144.75874894 16.4140625 136.265625 C14.8671875 132.305625 13.3203125 128.345625 11.7265625 124.265625 C-3.1234375 124.265625 -17.9734375 124.265625 -33.2734375 124.265625 C-36.39263336 132.54887252 -36.39263336 132.54887252 -39.49511719 140.83837891 C-45.62276828 156.94029039 -45.62276828 156.94029039 -54.2734375 161.265625 C-60.50140146 161.79479841 -65.98049944 161.97068164 -71.2734375 158.265625 C-73.93904751 155.86657599 -74.24349304 154.55799973 -74.61157227 150.96411133 C-74.50399181 144.588332 -72.06448397 138.73394365 -69.98828125 132.77734375 C-69.53492906 131.4490615 -69.08263175 130.12041881 -68.63131714 128.79144287 C-67.42242694 125.24178088 -66.19851309 121.69747463 -64.97143936 118.15406418 C-63.69655233 114.46446266 -62.43551274 110.77013181 -61.17260742 107.07641602 C-58.22519363 98.46623653 -55.25279278 89.86479556 -52.2734375 81.265625 C-51.87249878 80.10764404 -51.47156006 78.94966309 -51.05847168 77.7565918 C-47.8627269 68.5306216 -44.65274175 59.30982587 -41.41360474 50.09899902 C-38.91641929 42.99703733 -36.45594813 35.88501115 -34.0546875 28.75 C-33.54586817 27.24420473 -33.03699899 25.73842631 -32.52807617 24.23266602 C-31.59937994 21.483631 -30.68170585 18.73127529 -29.77075195 15.97631836 C-29.16299927 14.17626343 -29.16299927 14.17626343 -28.54296875 12.33984375 C-28.19854736 11.30432373 -27.85412598 10.26880371 -27.49926758 9.2019043 C-25.5151544 4.44927948 -23.56646801 1.02623118 -19.0859375 -1.609375 C-11.94567212 -3.71633855 -6.62582831 -3.43561468 0 0 Z M-11.2734375 44.265625 C-13.5540695 51.50987426 -15.83250211 58.75481252 -18.109375 66.00024414 C-18.88490447 68.46720209 -19.6609455 70.93399929 -20.4375 73.40063477 C-21.55081168 76.93724539 -22.66230844 80.47442188 -23.7734375 84.01171875 C-24.12341797 85.12212021 -24.47339844 86.23252167 -24.83398438 87.37657166 C-25.31448242 88.90804588 -25.31448242 88.90804588 -25.8046875 90.47045898 C-26.08892578 91.37424789 -26.37316406 92.2780368 -26.66601562 93.20921326 C-27.32065082 95.06809022 -27.32065082 95.06809022 -27.2734375 96.265625 C-16.3834375 96.265625 -5.4934375 96.265625 5.7265625 96.265625 C4.2731925 88.64933802 4.2731925 88.64933802 2.30615234 81.27490234 C2.04603363 80.43478607 1.78591492 79.5946698 1.51791382 78.72909546 C1.24387726 77.86200958 0.9698407 76.99492371 0.6875 76.1015625 C0.40178131 75.18347809 0.11606262 74.26539368 -0.17831421 73.31948853 C-1.08028489 70.42502948 -1.98922834 67.53281742 -2.8984375 64.640625 C-3.51609 62.66290558 -4.13328176 60.6850422 -4.75 58.70703125 C-6.25249682 53.89155032 -7.76124545 49.07806973 -9.2734375 44.265625 C-9.9334375 44.265625 -10.5934375 44.265625 -11.2734375 44.265625 Z " fill="#0097FE" transform="translate(260.2734375,169.734375)"/>
<path d="M0 0 C3.18761947 2.27687105 5.19993558 4.2394237 6.625 7.875 C7.22192349 12.49970548 7.16200245 17.11686342 7.12670898 21.77148438 C7.13049505 23.19119298 7.13599746 24.61089789 7.14308167 26.03059387 C7.15701636 29.87571795 7.14588077 33.72039356 7.12937045 37.56549263 C7.11549451 41.59456843 7.12198292 45.62361887 7.12550354 49.65270996 C7.12820366 56.41812343 7.11474721 63.18335927 7.09155273 69.94873047 C7.06494418 77.76388156 7.06319661 85.57873574 7.0749411 93.39391661 C7.08573061 100.9203085 7.07952262 108.44659328 7.06538582 115.97297668 C7.05963617 119.1722111 7.05970064 122.37136687 7.06445122 125.57060242 C7.06923325 129.33983176 7.05906893 133.10873713 7.03749657 136.87790489 C7.03194516 138.25895279 7.03144827 139.64003192 7.03644943 141.02108192 C7.04243186 142.91042406 7.02802301 144.7997976 7.01268005 146.68908691 C7.01025016 147.74504311 7.00782026 148.8009993 7.00531673 149.88895416 C6.4011088 154.63287531 4.6081082 157.8918918 1.25 161.25 C-4.14843231 163.6699869 -9.54565929 163.68483332 -15.375 162.875 C-18.99312518 161.05328662 -21.26550948 159.35565935 -23.375 155.875 C-24.43366562 152.58816497 -24.50546473 149.53517485 -24.51544189 146.09490967 C-24.52400711 144.32441002 -24.52400711 144.32441002 -24.53274536 142.5181427 C-24.53386322 141.22663803 -24.53498108 139.93513336 -24.53613281 138.60449219 C-24.54076326 137.22773608 -24.54578822 135.85098125 -24.55117798 134.47422791 C-24.56428313 130.736444 -24.57074338 126.99867804 -24.57518864 123.26087475 C-24.57812272 120.9236928 -24.58222818 118.58651573 -24.58669281 116.24933624 C-24.60036347 108.93120718 -24.61003194 101.61308929 -24.6138947 94.29494834 C-24.61837298 85.85784227 -24.63591194 77.42089841 -24.6648953 68.98384166 C-24.68654047 62.45544885 -24.69660051 55.92710159 -24.69793582 49.3986733 C-24.69898192 45.50278689 -24.70484795 41.60705304 -24.72275543 37.71120453 C-24.73928505 34.04381938 -24.7413681 30.37670068 -24.73261642 26.70929146 C-24.73148409 24.73083172 -24.74516405 22.75238063 -24.7593689 20.77397156 C-24.69121452 6.19121452 -24.69121452 6.19121452 -19.4375 0.9375 C-13.48457924 -2.12915615 -6.24711008 -2.08237003 0 0 Z " fill="#0096FE" transform="translate(353.375,168.125)"/>
</svg>
